<svg width="30" height="30" viewBox="0 0 30 30" fill="none" xmlns="http://www.w3.org/2000/svg">
<g clip-path="url(#clip0_11_359)">
<path d="M10.654 8.32799C10.5949 8.25205 10.5204 8.18954 10.4354 8.14461C10.3503 8.09969 10.2567 8.07337 10.1607 8.06741C10.0647 8.06145 9.96853 8.07599 9.87858 8.11005C9.78863 8.14412 9.70695 8.19693 9.63898 8.26499L8.60498 9.29999C8.12198 9.78399 7.94398 10.469 8.15498 11.07C9.03072 13.5576 10.4553 15.8161 12.323 17.678C14.1849 19.5457 16.4434 20.9702 18.931 21.846C19.532 22.057 20.217 21.879 20.701 21.396L21.735 20.362C21.803 20.294 21.8559 20.2123 21.8899 20.1224C21.924 20.0324 21.9385 19.9363 21.9326 19.8403C21.9266 19.7443 21.9003 19.6506 21.8554 19.5656C21.8104 19.4805 21.7479 19.406 21.672 19.347L19.365 17.553C19.2839 17.4901 19.1895 17.4464 19.089 17.4253C18.9885 17.4041 18.8846 17.4061 18.785 17.431L16.595 17.978C16.3027 18.0511 15.9964 18.0472 15.706 17.9667C15.4156 17.8863 15.151 17.732 14.938 17.519L12.482 15.062C12.2688 14.849 12.1143 14.5845 12.0337 14.2941C11.9531 14.0037 11.949 13.6974 12.022 13.405L12.57 11.215C12.5949 11.1154 12.5969 11.0114 12.5757 10.911C12.5546 10.8105 12.5109 10.7161 12.448 10.635L10.654 8.32799ZM8.88398 7.51099C9.05898 7.33594 9.26921 7.20012 9.50072 7.11255C9.73223 7.02498 9.97973 6.98767 10.2268 7.00308C10.4738 7.0185 10.7147 7.08629 10.9336 7.20197C11.1524 7.31764 11.3441 7.47854 11.496 7.67399L13.29 9.97999C13.619 10.403 13.735 10.954 13.605 11.474L13.058 13.664C13.0297 13.7774 13.0312 13.8962 13.0624 14.0089C13.0936 14.1216 13.1534 14.2243 13.236 14.307L15.693 16.764C15.7758 16.8467 15.8787 16.9066 15.9915 16.9378C16.1044 16.969 16.2234 16.9705 16.337 16.942L18.526 16.395C18.7826 16.3308 19.0504 16.3258 19.3093 16.3804C19.5681 16.435 19.8111 16.5477 20.02 16.71L22.326 18.504C23.155 19.149 23.231 20.374 22.489 21.115L21.455 22.149C20.715 22.889 19.609 23.214 18.578 22.851C15.9392 21.9225 13.5433 20.4118 11.568 18.431C9.58727 16.456 8.07659 14.0604 7.14798 11.422C6.78598 10.392 7.11098 9.28499 7.85098 8.54499L8.88498 7.51099H8.88398Z" fill="#FFE99C"/>
</g>
<circle cx="15" cy="15" r="14.5" stroke="#FFE99C"/>
<defs>
<clipPath id="clip0_11_359">
<rect width="16" height="16" fill="white" transform="translate(7 7)"/>
</clipPath>
</defs>
</svg>
