<svg width="18" height="16" viewBox="0 0 18 16" fill="none" xmlns="http://www.w3.org/2000/svg">
<g clip-path="url(#clip0_11_587)">
<path fill-rule="evenodd" clip-rule="evenodd" d="M9.345 0.826428C9.44636 0.826428 9.54358 0.866695 9.61525 0.93837C9.68693 1.01004 9.72719 1.10726 9.72719 1.20862V10.223L12.1319 7.81749C12.2037 7.74573 12.301 7.70541 12.4025 7.70541C12.504 7.70541 12.6014 7.74573 12.6731 7.81749C12.7449 7.88926 12.7852 7.98659 12.7852 8.08808C12.7852 8.18958 12.7449 8.28691 12.6731 8.35868L9.61559 11.4162C9.58009 11.4518 9.53791 11.48 9.49148 11.4993C9.44505 11.5186 9.39527 11.5285 9.345 11.5285C9.29473 11.5285 9.24495 11.5186 9.19852 11.4993C9.15209 11.48 9.10991 11.4518 9.07441 11.4162L6.01687 8.35868C5.9451 8.28691 5.90479 8.18958 5.90479 8.08808C5.90479 7.98659 5.9451 7.88926 6.01687 7.81749C6.08863 7.74573 6.18597 7.70541 6.28746 7.70541C6.38895 7.70541 6.48629 7.74573 6.55805 7.81749L8.96281 10.223V1.20862C8.96281 1.10726 9.00307 1.01004 9.07475 0.93837C9.14642 0.866695 9.24364 0.826428 9.345 0.826428Z" fill="black"/>
</g>
<line x1="0.78418" y1="15.6554" x2="17.9064" y2="15.6554" stroke="black" stroke-width="0.611508"/>
<defs>
<clipPath id="clip0_11_587">
<rect width="12.2302" height="12.2302" fill="white" transform="translate(3.22998 0.0619192)"/>
</clipPath>
</defs>
</svg>
