<svg width="23" height="22" viewBox="0 0 23 22" fill="none" xmlns="http://www.w3.org/2000/svg">
<path fill-rule="evenodd" clip-rule="evenodd" d="M0.499939 0H22.4999V22H0.499939V0ZM11.4999 5.5C14.5249 5.5 16.9999 7.975 16.9999 11C16.9999 13.75 15.0062 16.0875 12.2562 16.5V12.5812H13.5624L13.8374 11H12.3249V9.96875C12.3249 9.55625 12.5312 9.14375 13.2187 9.14375H13.9062V7.76875C13.9062 7.76875 13.2874 7.63125 12.6687 7.63125C11.4312 7.63125 10.6062 8.3875 10.6062 9.7625V11H9.23119V12.5812H10.6062V16.4312C7.99369 16.0187 5.99994 13.75 5.99994 11C5.99994 7.975 8.47494 5.5 11.4999 5.5Z" fill="#f6f6f6"/>
</svg>
