<svg width="23" height="22" viewBox="0 0 23 22" fill="none" xmlns="http://www.w3.org/2000/svg">
<path d="M11.8333 12.925C10.8021 12.925 9.90831 12.1 9.90831 11C9.90831 9.96875 10.7333 9.075 11.8333 9.075C12.8646 9.075 13.7583 9.9 13.7583 11C13.7583 12.0312 12.8646 12.925 11.8333 12.925Z" fill="#f6f6f6"/>
<path fill-rule="evenodd" clip-rule="evenodd" d="M14.1708 6.325H9.49581C8.94581 6.39375 8.67081 6.4625 8.46456 6.53125C8.18956 6.6 7.98331 6.7375 7.77706 6.94375C7.61386 7.10695 7.53675 7.27015 7.44355 7.46742C7.41898 7.51941 7.39323 7.5739 7.36456 7.63125C7.35393 7.66316 7.34165 7.69671 7.32848 7.73267C7.25656 7.92916 7.15831 8.19758 7.15831 8.6625V13.3375C7.22706 13.8875 7.29581 14.1625 7.36456 14.3687C7.43331 14.6437 7.57081 14.85 7.77706 15.0562C7.94027 15.2195 8.10347 15.2966 8.30074 15.3898C8.35277 15.4143 8.40717 15.44 8.46456 15.4687C8.49647 15.4794 8.53002 15.4917 8.56598 15.5048C8.76248 15.5767 9.0309 15.675 9.49581 15.675H14.1708C14.7208 15.6062 14.9958 15.5375 15.2021 15.4687C15.4771 15.4 15.6833 15.2625 15.8896 15.0562C16.0528 14.893 16.1299 14.7298 16.2231 14.5326C16.2477 14.4806 16.2734 14.4261 16.3021 14.3687C16.3127 14.3368 16.325 14.3033 16.3381 14.2673C16.4101 14.0708 16.5083 13.8024 16.5083 13.3375V8.6625C16.4396 8.1125 16.3708 7.8375 16.3021 7.63125C16.2333 7.35625 16.0958 7.15 15.8896 6.94375C15.7264 6.78054 15.5632 6.70343 15.3659 6.61023C15.3139 6.58569 15.2594 6.5599 15.2021 6.53125C15.1702 6.52061 15.1366 6.50833 15.1006 6.49517C14.9041 6.42325 14.6357 6.325 14.1708 6.325ZM11.8333 8.04375C10.1833 8.04375 8.87706 9.35 8.87706 11C8.87706 12.65 10.1833 13.9562 11.8333 13.9562C13.4833 13.9562 14.7896 12.65 14.7896 11C14.7896 9.35 13.4833 8.04375 11.8333 8.04375ZM15.5458 7.975C15.5458 8.35469 15.238 8.6625 14.8583 8.6625C14.4786 8.6625 14.1708 8.35469 14.1708 7.975C14.1708 7.5953 14.4786 7.2875 14.8583 7.2875C15.238 7.2875 15.5458 7.5953 15.5458 7.975Z" fill="#f6f6f6"/>
<path fill-rule="evenodd" clip-rule="evenodd" d="M0.833313 0H22.8333V22H0.833313V0ZM9.49581 5.29375H14.1708C14.7896 5.3625 15.2021 5.43125 15.5458 5.56875C15.9583 5.775 16.2333 5.9125 16.5771 6.25625C16.9208 6.6 17.1271 6.94375 17.2646 7.2875C17.4021 7.63125 17.5396 8.04375 17.5396 8.6625V13.3375C17.4708 13.9562 17.4021 14.3687 17.2646 14.7125C17.0583 15.125 16.9208 15.4 16.5771 15.7437C16.2333 16.0875 15.8896 16.2937 15.5458 16.4312C15.2021 16.5687 14.7896 16.7062 14.1708 16.7062H9.49581C8.87706 16.6375 8.46456 16.5687 8.12081 16.4312C7.70831 16.225 7.43331 16.0875 7.08956 15.7437C6.74581 15.4 6.53956 15.0562 6.40206 14.7125C6.26456 14.3687 6.12706 13.9562 6.12706 13.3375V8.6625C6.19581 8.04375 6.26456 7.63125 6.40206 7.2875C6.60831 6.875 6.74581 6.6 7.08956 6.25625C7.43331 5.9125 7.77706 5.70625 8.12081 5.56875C8.46456 5.43125 8.87706 5.29375 9.49581 5.29375Z" fill="#f6f6f6"/>
</svg>
