<svg width="38" height="38" viewBox="0 0 38 38" fill="none" xmlns="http://www.w3.org/2000/svg">
<path fill-rule="evenodd" clip-rule="evenodd" d="M0.944489 18.5278C0.944489 8.10861 8.51826 0 19.4477 0C30.0207 0 38 7.34118 38 18.5278C38 29.3048 30.0207 37.0556 19.4477 37.0556C8.87472 37.0556 0.944489 29.7164 0.944489 18.5278ZM21.894 30.3629C22.1801 30.2978 22.4865 30.2281 22.6128 30.1756C27.8491 28.8849 31.51 24.4065 31.5079 18.5278C31.5079 11.259 26.3229 6.48894 19.4538 6.48894C12.3533 6.48894 7.43249 11.7596 7.43249 18.5278C7.43249 22.1492 9.52249 25.6635 9.90519 26.1958C11.0064 27.7275 11.568 28.1906 12.8762 29.2695L12.8763 29.2697C13.1475 29.4933 13.4508 29.7434 13.7976 30.035C15.3136 31.3092 18.5606 33.7645 19.6587 34.2775C19.9066 34.3789 20.1667 34.4451 20.431 34.4803C20.4761 34.4864 20.5212 34.4823 20.5642 34.4699C20.6093 34.4575 20.6482 34.4347 20.683 34.4058C20.7178 34.3768 20.7445 34.3416 20.765 34.3003C20.7834 34.261 20.7957 34.2155 20.7977 34.17C20.8246 33.979 20.7737 33.2963 20.7281 32.6854V32.6853L20.728 32.6852C20.6971 32.2706 20.6687 31.889 20.6687 31.7167C20.6502 31.5554 20.6646 31.3919 20.7097 31.2368C20.7547 31.0817 20.8325 30.9369 20.935 30.8127C21.0395 30.6886 21.1665 30.5873 21.3099 30.5149C21.379 30.48 21.6276 30.4235 21.8938 30.3629H21.8939H21.894ZM15.1537 18.6064C15.1537 19.5409 14.4034 20.2985 13.4779 20.2985C12.5524 20.2985 11.8021 19.5409 11.8021 18.6064C11.8021 17.6719 12.5524 16.9144 13.4779 16.9144C14.4034 16.9144 15.1537 17.6719 15.1537 18.6064ZM19.4723 20.2985C20.3979 20.2985 21.1481 19.5409 21.1481 18.6064C21.1481 17.6719 20.3979 16.9144 19.4723 16.9144C18.5469 16.9144 17.7966 17.6719 17.7966 18.6064C17.7966 19.5409 18.5469 20.2985 19.4723 20.2985ZM27.1424 18.6064C27.1424 19.5409 26.3921 20.2985 25.4666 20.2985C24.5411 20.2985 23.7908 19.5409 23.7908 18.6064C23.7908 17.6719 24.5411 16.9144 25.4666 16.9144C26.3921 16.9144 27.1424 17.6719 27.1424 18.6064Z" fill="#FFE99C"/>
</svg>
