<svg width="42" height="42" viewBox="0 0 42 42" fill="none" xmlns="http://www.w3.org/2000/svg">
<circle cx="21" cy="21" r="21" fill="#FFE99C"/>
<path d="M31.56 16.16C31.4877 16.1089 31.4038 16.0733 31.3145 16.0558C31.2252 16.0383 31.1328 16.0393 31.044 16.0588L28.7424 16.6C27.8928 16.556 25.1832 15.6012 23.64 14.994L23.6088 14.983C21.5592 14.3076 19.7856 14.4594 18.3024 15.423C16.3296 14.8048 13.8024 16.1094 13.0224 16.556L10.9488 16.0676C10.8602 16.0464 10.7674 16.0441 10.6777 16.0609C10.588 16.0778 10.5037 16.1133 10.4313 16.1647C10.359 16.2162 10.3005 16.2822 10.2603 16.3577C10.2202 16.4331 10.1996 16.5161 10.2 16.6V24.3C10.2 24.4459 10.2632 24.5858 10.3757 24.6889C10.4882 24.7921 10.6409 24.85 10.8 24.85H12.0744L17.5296 28.7924C17.739 28.977 17.994 29.1125 18.2729 29.1871C18.5517 29.2618 18.8462 29.2735 19.1311 29.2212C19.4159 29.1688 19.6828 29.0541 19.9087 28.8867C20.1347 28.7194 20.3132 28.5043 20.4288 28.26C20.7007 28.4028 21.0083 28.4786 21.3216 28.48C21.6733 28.4801 22.0173 28.3858 22.3112 28.2087C22.6051 28.0316 22.8359 27.7794 22.9752 27.4834C23.2466 27.6273 23.5545 27.7032 23.868 27.7034C24.2193 27.7031 24.5628 27.6086 24.8562 27.4315C25.1496 27.2544 25.3801 27.0025 25.5192 26.7068C25.7963 26.851 26.1102 26.925 26.4288 26.9213C26.7474 26.9175 27.0591 26.8361 27.3321 26.6853C27.605 26.5346 27.8292 26.32 27.9817 26.0636C28.1343 25.8072 28.2096 25.5181 28.2 25.2262L29.484 24.85H31.2C31.3591 24.85 31.5117 24.7921 31.6242 24.6889C31.7368 24.5858 31.8 24.4459 31.8 24.3V16.6C31.8004 16.5146 31.7788 16.4302 31.7371 16.3538C31.6955 16.2774 31.6348 16.211 31.56 16.16V16.16ZM11.4 17.304L12.4728 17.557L12.0432 21.22L11.7456 23.75H11.4V17.304ZM26.8368 25.6552C26.7227 25.756 26.5704 25.8124 26.412 25.8124C26.2535 25.8124 26.1012 25.756 25.9872 25.6552L25.14 24.8786L21.7464 21.7656C21.6324 21.6716 21.4834 21.6212 21.3302 21.6248C21.1769 21.6283 21.0309 21.6855 20.9222 21.7846C20.8134 21.8837 20.7502 22.0172 20.7455 22.1577C20.7408 22.2981 20.7949 22.435 20.8968 22.54L24.2928 25.6574C24.4019 25.7613 24.4622 25.9003 24.4606 26.0445C24.459 26.1887 24.3957 26.3266 24.2843 26.4284C24.1729 26.5303 24.0223 26.5879 23.865 26.5889C23.7077 26.59 23.5562 26.5343 23.4432 26.434L22.5936 25.6552L20.04 23.321C19.9842 23.2699 19.918 23.2293 19.8451 23.2016C19.7722 23.174 19.6941 23.1597 19.6152 23.1597C19.5363 23.1597 19.4582 23.174 19.3853 23.2016C19.3124 23.2293 19.2462 23.2699 19.1904 23.321C19.1346 23.3721 19.0903 23.4328 19.0602 23.4997C19.03 23.5665 19.0144 23.6381 19.0144 23.7104C19.0144 23.7827 19.03 23.8543 19.0602 23.9211C19.0903 23.988 19.1346 24.0487 19.1904 24.0998L21.7464 26.434C21.8036 26.4848 21.8492 26.5456 21.8806 26.6127C21.9119 26.6798 21.9283 26.752 21.9289 26.8251C21.9295 26.8981 21.9142 26.9705 21.8839 27.038C21.8536 27.1056 21.809 27.1669 21.7526 27.2185C21.6962 27.2701 21.6291 27.3108 21.5553 27.3384C21.4816 27.3659 21.4025 27.3798 21.3229 27.379C21.2432 27.3783 21.1645 27.363 21.0914 27.3341C21.0182 27.3052 20.9521 27.2632 20.8968 27.2106L18.36 24.8786C18.3045 24.8275 18.2384 24.7869 18.1658 24.7592C18.0931 24.7315 18.0151 24.7172 17.9364 24.7172C17.8577 24.7172 17.7797 24.7315 17.707 24.7592C17.6343 24.7869 17.5683 24.8275 17.5128 24.8786C17.4569 24.9291 17.4125 24.9894 17.3824 25.056C17.3523 25.1225 17.3371 25.1938 17.3376 25.2658C17.3373 25.3381 17.3527 25.4097 17.3827 25.4766C17.4128 25.5434 17.457 25.6041 17.5128 25.6552L19.2096 27.2106C19.3218 27.3141 19.3849 27.4541 19.3849 27.6C19.3849 27.7459 19.3218 27.8859 19.2096 27.9894C19.095 28.0892 18.9429 28.1449 18.7848 28.1449C18.6267 28.1449 18.4746 28.0892 18.36 27.9894C18.3435 27.9736 18.3259 27.9589 18.3072 27.9454L12.9144 24.0558L13.5168 18.954L13.692 17.4668C14.4552 17.0268 15.9456 16.347 17.1816 16.3668C16.8143 16.7556 16.4857 17.1738 16.2 17.6164C15.9353 18.0299 15.851 18.5198 15.9641 18.9879C16.0772 19.4559 16.3792 19.8674 16.8096 20.1398C17.6592 20.6722 19.2096 21.1672 21.1296 19.647L26.8368 24.8764C26.9485 24.9802 27.0111 25.12 27.0111 25.2658C27.0111 25.4116 26.9485 25.5515 26.8368 25.6552V25.6552ZM27.78 24.1966C27.7507 24.1628 27.7195 24.1305 27.6864 24.0998L21.9744 18.8638C22.2144 18.613 22.4544 18.3336 22.6944 18.0168C22.7489 17.9588 22.7897 17.891 22.814 17.8177C22.8383 17.7444 22.8456 17.6673 22.8355 17.5912C22.8254 17.5152 22.7981 17.4419 22.7553 17.3761C22.7125 17.3103 22.6552 17.2535 22.587 17.2091C22.5189 17.1648 22.4414 17.134 22.3595 17.1188C22.2776 17.1035 22.1932 17.1041 22.1115 17.1205C22.0299 17.1369 21.9529 17.1687 21.8855 17.2139C21.8181 17.2592 21.7617 17.3168 21.72 17.3832C20.6544 18.767 19.0608 20.2102 17.496 19.2312C17.3183 19.1152 17.1949 18.942 17.1504 18.7463C17.1059 18.5505 17.1436 18.3466 17.256 18.1752C17.6449 17.5382 18.1535 16.9692 18.7584 16.4944C18.7778 16.4817 18.7963 16.4677 18.8136 16.4526C20.0136 15.5726 21.4536 15.4384 23.2008 16.0126C23.6544 16.1886 26.676 17.3612 28.26 17.6406L28.788 23.9084L27.78 24.1966ZM30.6 23.75H29.9568L29.436 17.5702L30.6 17.304V23.75Z" fill="black"/>
</svg>
