<svg width="23" height="22" viewBox="0 0 23 22" fill="none" xmlns="http://www.w3.org/2000/svg">
<path fill-rule="evenodd" clip-rule="evenodd" d="M0.166687 0H22.1667V22H0.166687V0ZM11.6423 8.25507C10.6571 8.66484 8.68816 9.51297 5.73538 10.7995C5.25589 10.9901 5.00472 11.1767 4.98185 11.3591C4.94321 11.6673 5.32923 11.7887 5.85488 11.954C5.92638 11.9765 6.00047 11.9998 6.07642 12.0245C6.59359 12.1926 7.28927 12.3892 7.65092 12.397C7.97898 12.4041 8.34512 12.2689 8.74936 11.9913C11.5082 10.129 12.9324 9.18768 13.0218 9.16738C13.0849 9.15307 13.1723 9.13507 13.2315 9.18771C13.2907 9.24035 13.2849 9.34004 13.2786 9.36679C13.2404 9.52981 11.7251 10.9385 10.941 11.6675C10.6965 11.8948 10.5231 12.056 10.4877 12.0928C10.4083 12.1753 10.3273 12.2533 10.2496 12.3283C9.76911 12.7915 9.40881 13.1388 10.2695 13.706C10.6831 13.9786 11.0141 14.204 11.3443 14.4288C11.7049 14.6744 12.0646 14.9193 12.53 15.2244C12.6485 15.3021 12.7617 15.3828 12.872 15.4615C13.2917 15.7606 13.6687 16.0294 14.1345 15.9866C14.4052 15.9617 14.6848 15.7072 14.8267 14.9481C15.1623 13.1543 15.8219 9.26756 15.9743 7.66594C15.9877 7.52562 15.9709 7.34604 15.9574 7.2672C15.9439 7.18837 15.9157 7.07605 15.8132 6.9929C15.6918 6.89443 15.5045 6.87366 15.4207 6.87506C15.0397 6.88185 14.4552 7.08509 11.6423 8.25507Z" fill="#f6f6f6"/>
</svg>
