<svg width="23" height="22" viewBox="0 0 23 22" fill="none" xmlns="http://www.w3.org/2000/svg">
<path d="M13.2876 11L10.4001 9.35V12.65L13.2876 11Z" fill="#f6f6f6"/>
<path fill-rule="evenodd" clip-rule="evenodd" d="M0.500061 0H22.5001V22H0.500061V0ZM15.7626 7.35625C16.2438 7.49375 16.5876 7.8375 16.7251 8.31875C17.0001 9.2125 17.0001 11 17.0001 11C17.0001 11 17.0001 12.7875 16.7938 13.6813C16.6563 14.1625 16.3126 14.5063 15.8313 14.6438C14.9376 14.85 11.5001 14.85 11.5001 14.85C11.5001 14.85 7.99381 14.85 7.16881 14.6438C6.68756 14.5063 6.34381 14.1625 6.20631 13.6813C6.00006 12.7875 6.00006 11 6.00006 11C6.00006 11 6.00006 9.2125 6.13756 8.31875C6.27506 7.8375 6.61882 7.49375 7.10007 7.35625C7.99382 7.15 11.4313 7.15 11.4313 7.15C11.4313 7.15 14.9376 7.15 15.7626 7.35625Z" fill="#f6f6f6"/>
</svg>
